<svg xmlns="http://www.w3.org/2000/svg" xmlns:xlink="http://www.w3.org/1999/xlink" width="50" zoomAndPan="magnify" viewBox="0 0 37.5 37.499999" height="50" preserveAspectRatio="xMidYMid meet" version="1.0"><defs><clipPath id="id1"><path d="M 1.621094 4.617188 L 17 4.617188 L 17 20 L 1.621094 20 Z M 1.621094 4.617188 " clip-rule="nonzero"/></clipPath><clipPath id="id2"><path d="M 13.25 9.988281 L 36.105469 9.988281 L 36.105469 33.117188 L 13.25 33.117188 Z M 13.25 9.988281 " clip-rule="nonzero"/></clipPath></defs><g clip-path="url(#id1)"><path fill="#9efbff" d="M 3.574219 15.992188 L 2.707031 14.492188 C 2.65625 14.410156 2.6875 14.300781 2.769531 14.253906 L 3.761719 13.675781 C 3.875 13.609375 3.929688 13.472656 3.894531 13.347656 C 3.746094 12.847656 3.679688 12.332031 3.6875 11.8125 C 3.6875 11.679688 3.601562 11.5625 3.472656 11.53125 L 2.363281 11.234375 C 2.320312 11.222656 2.28125 11.195312 2.257812 11.152344 C 2.234375 11.113281 2.226562 11.066406 2.238281 11.019531 L 2.683594 9.347656 C 2.707031 9.253906 2.804688 9.195312 2.898438 9.222656 L 4.007812 9.515625 C 4.132812 9.550781 4.269531 9.492188 4.332031 9.375 C 4.582031 8.921875 4.898438 8.507812 5.269531 8.144531 C 5.367188 8.054688 5.386719 7.910156 5.320312 7.792969 L 4.742188 6.800781 C 4.71875 6.757812 4.710938 6.710938 4.726562 6.667969 C 4.738281 6.621094 4.765625 6.585938 4.804688 6.558594 L 6.300781 5.691406 C 6.34375 5.667969 6.390625 5.660156 6.433594 5.671875 C 6.480469 5.683594 6.515625 5.714844 6.539062 5.753906 L 7.117188 6.746094 C 7.183594 6.863281 7.320312 6.917969 7.445312 6.878906 C 7.945312 6.734375 8.460938 6.664062 8.980469 6.671875 C 8.980469 6.671875 8.980469 6.671875 8.984375 6.671875 C 9.113281 6.671875 9.226562 6.585938 9.261719 6.460938 L 9.554688 5.347656 C 9.566406 5.304688 9.597656 5.265625 9.636719 5.242188 C 9.675781 5.21875 9.722656 5.210938 9.769531 5.222656 L 11.441406 5.667969 C 11.484375 5.679688 11.523438 5.707031 11.546875 5.75 C 11.570312 5.789062 11.578125 5.835938 11.566406 5.882812 L 11.269531 6.992188 C 11.238281 7.121094 11.292969 7.253906 11.410156 7.320312 C 11.867188 7.570312 12.277344 7.886719 12.640625 8.257812 C 12.730469 8.355469 12.875 8.375 12.992188 8.308594 L 13.984375 7.730469 C 14.066406 7.683594 14.175781 7.710938 14.222656 7.792969 L 15.089844 9.292969 C 15.140625 9.375 15.109375 9.484375 15.027344 9.53125 L 14.035156 10.109375 C 13.921875 10.175781 13.867188 10.3125 13.902344 10.4375 C 14.050781 10.9375 14.117188 11.453125 14.109375 11.972656 C 14.109375 12.105469 14.195312 12.222656 14.324219 12.257812 L 15.433594 12.550781 C 15.476562 12.5625 15.515625 12.589844 15.539062 12.632812 C 15.5625 12.671875 15.570312 12.71875 15.558594 12.765625 L 15.113281 14.4375 C 15.089844 14.53125 14.992188 14.589844 14.898438 14.5625 L 13.789062 14.269531 C 13.664062 14.234375 13.527344 14.292969 13.464844 14.410156 C 13.214844 14.863281 12.898438 15.277344 12.527344 15.640625 C 12.429688 15.730469 12.410156 15.875 12.476562 15.992188 L 13.054688 16.984375 C 13.101562 17.070312 13.074219 17.175781 12.992188 17.226562 L 11.496094 18.09375 C 11.453125 18.117188 11.40625 18.125 11.363281 18.113281 C 11.316406 18.101562 11.28125 18.070312 11.257812 18.03125 L 10.679688 17.039062 C 10.613281 16.921875 10.476562 16.867188 10.351562 16.90625 C 9.851562 17.050781 9.335938 17.121094 8.816406 17.113281 C 8.816406 17.113281 8.816406 17.113281 8.8125 17.113281 C 8.683594 17.113281 8.570312 17.199219 8.535156 17.324219 L 8.242188 18.4375 C 8.21875 18.53125 8.121094 18.585938 8.027344 18.5625 L 6.355469 18.117188 C 6.3125 18.105469 6.273438 18.078125 6.25 18.035156 C 6.226562 17.996094 6.21875 17.949219 6.230469 17.902344 L 6.527344 16.792969 C 6.558594 16.664062 6.503906 16.53125 6.386719 16.464844 C 5.929688 16.214844 5.519531 15.898438 5.15625 15.527344 C 5.101562 15.46875 5.027344 15.4375 4.949219 15.4375 C 4.902344 15.4375 4.851562 15.453125 4.804688 15.476562 L 3.8125 16.054688 C 3.730469 16.101562 3.621094 16.074219 3.574219 15.992188 Z M 4.902344 16.085938 C 5.210938 16.378906 5.550781 16.636719 5.914062 16.859375 L 5.675781 17.753906 C 5.570312 18.15625 5.808594 18.566406 6.207031 18.671875 L 7.878906 19.117188 C 7.945312 19.132812 8.007812 19.140625 8.070312 19.140625 C 8.402344 19.140625 8.707031 18.917969 8.796875 18.582031 L 9.035156 17.6875 C 9.457031 17.675781 9.882812 17.621094 10.292969 17.515625 L 10.761719 18.320312 C 10.859375 18.492188 11.023438 18.617188 11.214844 18.667969 C 11.410156 18.71875 11.609375 18.691406 11.785156 18.589844 L 13.277344 17.722656 C 13.453125 17.621094 13.574219 17.457031 13.625 17.265625 C 13.679688 17.070312 13.652344 16.871094 13.550781 16.695312 L 13.085938 15.894531 C 13.378906 15.585938 13.636719 15.246094 13.855469 14.882812 L 14.753906 15.117188 C 15.152344 15.226562 15.5625 14.984375 15.667969 14.585938 L 16.113281 12.914062 C 16.164062 12.71875 16.136719 12.515625 16.035156 12.34375 C 15.933594 12.171875 15.773438 12.046875 15.578125 11.996094 L 14.683594 11.757812 C 14.671875 11.332031 14.617188 10.910156 14.515625 10.496094 L 15.316406 10.027344 C 15.671875 9.820312 15.792969 9.359375 15.585938 9.003906 L 14.71875 7.503906 C 14.511719 7.148438 14.050781 7.027344 13.695312 7.234375 L 12.894531 7.699219 C 12.585938 7.40625 12.246094 7.148438 11.882812 6.925781 L 12.121094 6.03125 C 12.171875 5.835938 12.144531 5.632812 12.042969 5.460938 C 11.941406 5.289062 11.78125 5.164062 11.589844 5.113281 L 9.917969 4.667969 C 9.722656 4.617188 9.519531 4.644531 9.347656 4.746094 C 9.175781 4.84375 9.050781 5.007812 9 5.203125 L 8.761719 6.097656 C 8.335938 6.109375 7.914062 6.164062 7.503906 6.269531 L 7.035156 5.464844 C 6.9375 5.292969 6.773438 5.167969 6.582031 5.117188 C 6.386719 5.066406 6.1875 5.09375 6.011719 5.195312 L 4.519531 6.0625 C 4.34375 6.164062 4.222656 6.324219 4.171875 6.519531 C 4.117188 6.714844 4.144531 6.914062 4.246094 7.089844 L 4.710938 7.890625 C 4.417969 8.199219 4.160156 8.539062 3.941406 8.902344 L 3.042969 8.667969 C 2.851562 8.613281 2.648438 8.640625 2.476562 8.742188 C 2.304688 8.84375 2.179688 9.003906 2.128906 9.199219 L 1.683594 10.875 C 1.632812 11.066406 1.660156 11.269531 1.761719 11.441406 C 1.863281 11.617188 2.023438 11.738281 2.21875 11.789062 L 3.113281 12.027344 C 3.125 12.453125 3.179688 12.875 3.28125 13.289062 L 2.480469 13.757812 C 2.125 13.964844 2.003906 14.425781 2.210938 14.78125 L 3.078125 16.28125 C 3.179688 16.453125 3.339844 16.578125 3.535156 16.628906 C 3.726562 16.679688 3.929688 16.652344 4.101562 16.550781 L 4.902344 16.085938 " fill-opacity="1" fill-rule="nonzero"/></g><path fill="#9efbff" d="M 5.8125 11.074219 C 6.191406 9.644531 7.488281 8.695312 8.898438 8.695312 C 9.167969 8.695312 9.445312 8.730469 9.714844 8.804688 C 11.417969 9.253906 12.433594 11.007812 11.984375 12.710938 C 11.765625 13.535156 11.238281 14.226562 10.5 14.65625 C 9.765625 15.085938 8.90625 15.199219 8.082031 14.980469 C 6.378906 14.53125 5.363281 12.777344 5.8125 11.074219 Z M 7.933594 15.539062 C 8.253906 15.621094 8.578125 15.664062 8.898438 15.664062 C 10.5625 15.664062 12.089844 14.546875 12.539062 12.859375 C 13.070312 10.847656 11.871094 8.78125 9.863281 8.246094 C 7.855469 7.714844 5.792969 8.917969 5.257812 10.925781 C 4.726562 12.9375 5.925781 15.003906 7.933594 15.539062 " fill-opacity="1" fill-rule="nonzero"/><path fill="#9efbff" d="M 24.699219 27.367188 C 21.492188 27.367188 18.886719 24.753906 18.886719 21.546875 C 18.886719 18.335938 21.492188 15.722656 24.699219 15.722656 C 27.90625 15.722656 30.511719 18.335938 30.511719 21.546875 C 30.511719 24.753906 27.90625 27.367188 24.699219 27.367188 Z M 24.699219 15.148438 C 22.992188 15.148438 21.390625 15.8125 20.183594 17.023438 C 18.976562 18.230469 18.3125 19.835938 18.3125 21.546875 C 18.3125 23.253906 18.976562 24.859375 20.183594 26.070312 C 21.390625 27.277344 22.992188 27.941406 24.699219 27.941406 C 26.40625 27.941406 28.007812 27.277344 29.214844 26.070312 C 30.421875 24.859375 31.085938 23.253906 31.085938 21.546875 C 31.085938 19.835938 30.421875 18.230469 29.214844 17.023438 C 28.007812 15.8125 26.40625 15.148438 24.699219 15.148438 " fill-opacity="1" fill-rule="nonzero"/><g clip-path="url(#id2)"><path fill="#9efbff" d="M 35.304688 19.804688 L 33.554688 20.375 C 33.425781 20.414062 33.34375 20.539062 33.359375 20.675781 C 33.386719 20.964844 33.402344 21.261719 33.402344 21.554688 C 33.402344 21.84375 33.386719 22.140625 33.359375 22.429688 C 33.34375 22.566406 33.425781 22.691406 33.554688 22.734375 L 35.304688 23.304688 C 35.476562 23.359375 35.570312 23.542969 35.515625 23.714844 L 34.714844 26.183594 C 34.6875 26.265625 34.628906 26.332031 34.550781 26.371094 C 34.472656 26.414062 34.386719 26.417969 34.304688 26.394531 L 32.554688 25.824219 C 32.425781 25.78125 32.285156 25.835938 32.214844 25.953125 C 31.921875 26.457031 31.574219 26.933594 31.183594 27.371094 C 31.09375 27.472656 31.085938 27.621094 31.167969 27.730469 L 32.25 29.222656 C 32.355469 29.371094 32.324219 29.574219 32.175781 29.679688 L 30.078125 31.207031 C 30.011719 31.257812 29.925781 31.277344 29.839844 31.261719 C 29.75 31.25 29.675781 31.203125 29.625 31.132812 L 28.542969 29.644531 C 28.464844 29.535156 28.320312 29.496094 28.195312 29.546875 C 27.660156 29.785156 27.101562 29.96875 26.527344 30.089844 C 26.394531 30.121094 26.300781 30.238281 26.300781 30.371094 L 26.300781 32.214844 C 26.300781 32.394531 26.15625 32.542969 25.976562 32.542969 L 23.382812 32.542969 C 23.203125 32.542969 23.058594 32.394531 23.058594 32.214844 L 23.058594 30.371094 C 23.058594 30.238281 22.964844 30.121094 22.832031 30.089844 C 22.261719 29.96875 21.699219 29.785156 21.164062 29.546875 C 21.125 29.53125 21.085938 29.523438 21.046875 29.523438 C 20.957031 29.523438 20.871094 29.566406 20.816406 29.644531 L 19.734375 31.132812 C 19.683594 31.203125 19.609375 31.25 19.523438 31.261719 C 19.4375 31.277344 19.347656 31.257812 19.28125 31.207031 L 17.183594 29.679688 C 17.113281 29.628906 17.066406 29.554688 17.054688 29.464844 C 17.039062 29.378906 17.058594 29.292969 17.109375 29.222656 L 18.191406 27.730469 C 18.273438 27.621094 18.265625 27.472656 18.175781 27.371094 C 17.785156 26.933594 17.4375 26.457031 17.144531 25.953125 C 17.074219 25.835938 16.933594 25.78125 16.808594 25.824219 L 15.054688 26.394531 C 14.972656 26.417969 14.886719 26.414062 14.808594 26.371094 C 14.730469 26.332031 14.671875 26.265625 14.644531 26.183594 L 13.84375 23.714844 C 13.820312 23.632812 13.824219 23.542969 13.863281 23.464844 C 13.90625 23.386719 13.972656 23.328125 14.054688 23.304688 L 15.804688 22.734375 C 15.933594 22.691406 16.015625 22.566406 16 22.429688 C 15.972656 22.140625 15.957031 21.84375 15.957031 21.554688 C 15.957031 21.261719 15.972656 20.964844 16 20.675781 C 16.015625 20.539062 15.933594 20.414062 15.804688 20.375 L 14.054688 19.804688 C 13.972656 19.777344 13.90625 19.71875 13.863281 19.640625 C 13.824219 19.5625 13.820312 19.476562 13.84375 19.390625 L 14.644531 16.921875 C 14.703125 16.753906 14.886719 16.65625 15.054688 16.714844 L 16.808594 17.285156 C 16.933594 17.324219 17.074219 17.273438 17.144531 17.15625 C 17.4375 16.648438 17.785156 16.171875 18.175781 15.734375 C 18.265625 15.632812 18.273438 15.484375 18.191406 15.375 L 17.109375 13.882812 C 17.003906 13.738281 17.039062 13.53125 17.183594 13.425781 L 19.28125 11.902344 C 19.425781 11.792969 19.628906 11.828125 19.734375 11.972656 L 20.816406 13.464844 C 20.894531 13.574219 21.039062 13.613281 21.164062 13.558594 C 21.699219 13.320312 22.261719 13.140625 22.832031 13.015625 C 22.964844 12.988281 23.058594 12.871094 23.058594 12.734375 L 23.058594 10.890625 C 23.058594 10.710938 23.203125 10.566406 23.382812 10.566406 L 25.976562 10.566406 C 26.15625 10.566406 26.300781 10.710938 26.300781 10.890625 L 26.300781 12.734375 C 26.300781 12.871094 26.394531 12.988281 26.527344 13.015625 C 27.101562 13.140625 27.660156 13.320312 28.195312 13.558594 C 28.320312 13.613281 28.464844 13.574219 28.542969 13.464844 L 29.625 11.972656 C 29.675781 11.902344 29.75 11.855469 29.839844 11.84375 C 29.925781 11.828125 30.011719 11.851562 30.078125 11.902344 L 32.175781 13.425781 C 32.324219 13.53125 32.355469 13.738281 32.25 13.882812 L 31.167969 15.375 C 31.085938 15.484375 31.09375 15.632812 31.183594 15.734375 C 31.574219 16.171875 31.921875 16.648438 32.214844 17.15625 C 32.285156 17.273438 32.425781 17.324219 32.554688 17.285156 L 34.304688 16.714844 C 34.386719 16.6875 34.472656 16.695312 34.550781 16.734375 C 34.628906 16.773438 34.6875 16.839844 34.714844 16.921875 L 35.515625 19.390625 C 35.570312 19.5625 35.476562 19.746094 35.304688 19.804688 Z M 36.0625 19.214844 L 35.257812 16.746094 C 35.1875 16.515625 35.027344 16.332031 34.8125 16.222656 C 34.597656 16.113281 34.355469 16.09375 34.125 16.167969 L 32.59375 16.667969 C 32.347656 16.265625 32.070312 15.886719 31.765625 15.527344 L 32.714844 14.21875 C 33.003906 13.816406 32.917969 13.253906 32.515625 12.960938 L 30.417969 11.4375 C 30.222656 11.292969 29.984375 11.238281 29.75 11.277344 C 29.511719 11.3125 29.300781 11.441406 29.160156 11.636719 L 28.214844 12.941406 C 27.78125 12.761719 27.332031 12.617188 26.875 12.503906 L 26.875 10.890625 C 26.875 10.394531 26.472656 9.992188 25.976562 9.992188 L 23.382812 9.992188 C 22.886719 9.992188 22.484375 10.394531 22.484375 10.890625 L 22.484375 12.503906 C 22.027344 12.617188 21.578125 12.761719 21.144531 12.941406 L 20.199219 11.636719 C 19.90625 11.234375 19.34375 11.144531 18.941406 11.4375 L 16.84375 12.960938 C 16.445312 13.253906 16.355469 13.816406 16.644531 14.21875 L 17.59375 15.527344 C 17.289062 15.886719 17.011719 16.265625 16.765625 16.667969 L 15.234375 16.167969 C 14.761719 16.011719 14.253906 16.273438 14.101562 16.746094 L 13.300781 19.214844 C 13.226562 19.441406 13.246094 19.6875 13.355469 19.902344 C 13.464844 20.117188 13.648438 20.277344 13.875 20.351562 L 15.410156 20.847656 C 15.394531 21.082031 15.382812 21.320312 15.382812 21.554688 C 15.382812 21.789062 15.394531 22.023438 15.410156 22.257812 L 13.875 22.757812 C 13.648438 22.832031 13.464844 22.988281 13.355469 23.203125 C 13.246094 23.417969 13.226562 23.664062 13.300781 23.890625 L 14.101562 26.359375 C 14.175781 26.589844 14.332031 26.773438 14.546875 26.882812 C 14.761719 26.992188 15.003906 27.011719 15.234375 26.9375 L 16.765625 26.441406 C 17.011719 26.839844 17.289062 27.222656 17.59375 27.578125 L 16.644531 28.886719 C 16.503906 29.082031 16.449219 29.320312 16.484375 29.554688 C 16.523438 29.792969 16.652344 30.003906 16.84375 30.144531 L 18.941406 31.671875 C 19.136719 31.8125 19.375 31.867188 19.613281 31.832031 C 19.847656 31.792969 20.058594 31.664062 20.199219 31.472656 L 21.144531 30.164062 C 21.578125 30.34375 22.027344 30.488281 22.484375 30.601562 L 22.484375 32.214844 C 22.484375 32.710938 22.886719 33.117188 23.382812 33.117188 L 25.976562 33.117188 C 26.472656 33.117188 26.875 32.710938 26.875 32.214844 L 26.875 30.601562 C 27.332031 30.488281 27.78125 30.34375 28.214844 30.164062 L 29.160156 31.472656 C 29.300781 31.664062 29.511719 31.792969 29.75 31.832031 C 29.984375 31.867188 30.222656 31.8125 30.417969 31.671875 L 32.515625 30.144531 C 32.917969 29.851562 33.003906 29.289062 32.714844 28.886719 L 31.765625 27.578125 C 32.070312 27.21875 32.347656 26.839844 32.59375 26.441406 L 34.125 26.9375 C 34.355469 27.011719 34.597656 26.992188 34.8125 26.882812 C 35.027344 26.773438 35.1875 26.589844 35.257812 26.359375 L 36.0625 23.890625 C 36.214844 23.417969 35.953125 22.910156 35.484375 22.757812 L 33.949219 22.257812 C 33.964844 22.023438 33.976562 21.785156 33.976562 21.554688 C 33.976562 21.320312 33.964844 21.082031 33.949219 20.847656 L 35.484375 20.351562 C 35.953125 20.195312 36.214844 19.6875 36.0625 19.214844 " fill-opacity="1" fill-rule="nonzero"/></g><path fill="#9efbff" d="M 8.886719 11.621094 C 9.027344 11.621094 9.140625 11.734375 9.140625 11.875 C 9.140625 12.015625 9.027344 12.128906 8.886719 12.128906 C 8.746094 12.128906 8.632812 12.015625 8.632812 11.875 C 8.632812 11.734375 8.746094 11.621094 8.886719 11.621094 Z M 8.886719 12.707031 C 9.34375 12.707031 9.714844 12.332031 9.714844 11.875 C 9.714844 11.417969 9.34375 11.046875 8.886719 11.046875 C 8.429688 11.046875 8.058594 11.417969 8.058594 11.875 C 8.058594 12.332031 8.429688 12.707031 8.886719 12.707031 " fill-opacity="1" fill-rule="nonzero"/><path fill="#9efbff" d="M 10.824219 11.621094 C 10.964844 11.621094 11.078125 11.734375 11.078125 11.875 C 11.078125 12.015625 10.964844 12.128906 10.824219 12.128906 C 10.683594 12.128906 10.570312 12.015625 10.570312 11.875 C 10.570312 11.734375 10.683594 11.621094 10.824219 11.621094 Z M 10.824219 12.707031 C 11.28125 12.707031 11.652344 12.332031 11.652344 11.875 C 11.652344 11.417969 11.28125 11.046875 10.824219 11.046875 C 10.367188 11.046875 9.996094 11.417969 9.996094 11.875 C 9.996094 12.332031 10.367188 12.707031 10.824219 12.707031 " fill-opacity="1" fill-rule="nonzero"/><path fill="#9efbff" d="M 6.695312 11.875 C 6.695312 11.734375 6.808594 11.621094 6.949219 11.621094 C 7.089844 11.621094 7.203125 11.734375 7.203125 11.875 C 7.203125 12.015625 7.089844 12.128906 6.949219 12.128906 C 6.808594 12.128906 6.695312 12.015625 6.695312 11.875 Z M 7.777344 11.875 C 7.777344 11.417969 7.40625 11.046875 6.949219 11.046875 C 6.492188 11.046875 6.121094 11.417969 6.121094 11.875 C 6.121094 12.332031 6.492188 12.707031 6.949219 12.707031 C 7.40625 12.707031 7.777344 12.332031 7.777344 11.875 " fill-opacity="1" fill-rule="nonzero"/><path fill="#9efbff" d="M 20.9375 21.570312 L 22.433594 20.070312 C 22.542969 19.960938 22.542969 19.777344 22.433594 19.664062 C 22.320312 19.554688 22.140625 19.554688 22.027344 19.664062 L 20.328125 21.367188 C 20.273438 21.417969 20.246094 21.492188 20.246094 21.570312 C 20.246094 21.644531 20.273438 21.71875 20.328125 21.773438 L 22.046875 23.492188 C 22.101562 23.546875 22.175781 23.574219 22.25 23.574219 C 22.320312 23.574219 22.394531 23.546875 22.453125 23.492188 C 22.5625 23.378906 22.5625 23.199219 22.453125 23.085938 L 20.9375 21.570312 " fill-opacity="1" fill-rule="nonzero"/><path fill="#9efbff" d="M 26.949219 19.664062 C 26.835938 19.777344 26.835938 19.960938 26.949219 20.070312 L 28.441406 21.570312 L 26.929688 23.085938 C 26.816406 23.199219 26.816406 23.378906 26.929688 23.492188 C 26.984375 23.546875 27.058594 23.574219 27.132812 23.574219 C 27.207031 23.574219 27.277344 23.546875 27.335938 23.492188 L 29.050781 21.773438 C 29.105469 21.71875 29.136719 21.644531 29.136719 21.570312 C 29.136719 21.492188 29.105469 21.417969 29.050781 21.367188 L 27.355469 19.664062 C 27.242188 19.554688 27.058594 19.554688 26.949219 19.664062 " fill-opacity="1" fill-rule="nonzero"/><path fill="#9efbff" d="M 25.460938 19.601562 C 25.316406 19.542969 25.148438 19.617188 25.089844 19.765625 L 23.753906 23.183594 C 23.699219 23.332031 23.769531 23.5 23.917969 23.554688 C 23.953125 23.570312 23.988281 23.574219 24.023438 23.574219 C 24.136719 23.574219 24.246094 23.507812 24.289062 23.394531 L 25.625 19.972656 C 25.683594 19.824219 25.609375 19.660156 25.460938 19.601562 " fill-opacity="1" fill-rule="nonzero"/></svg>