<svg xmlns="http://www.w3.org/2000/svg" xmlns:xlink="http://www.w3.org/1999/xlink" width="315" zoomAndPan="magnify" viewBox="0 0 236.25 90.75" height="121" preserveAspectRatio="xMidYMid meet" version="1.0"><defs><g/><clipPath id="id1"><path d="M 12.230469 21.003906 L 38 21.003906 L 38 46 L 12.230469 46 Z M 12.230469 21.003906 " clip-rule="nonzero"/></clipPath><clipPath id="id2"><path d="M 32.140625 30.160156 L 71.269531 30.160156 L 71.269531 69.59375 L 32.140625 69.59375 Z M 32.140625 30.160156 " clip-rule="nonzero"/></clipPath></defs><g clip-path="url(#id1)"><path fill="#38b6ff" d="M 15.574219 40.394531 L 14.085938 37.84375 C 14.003906 37.699219 14.050781 37.515625 14.195312 37.433594 L 15.894531 36.449219 C 16.089844 36.335938 16.183594 36.105469 16.117188 35.886719 C 15.871094 35.035156 15.75 34.15625 15.765625 33.269531 C 15.769531 33.042969 15.617188 32.84375 15.398438 32.789062 L 13.5 32.285156 C 13.421875 32.265625 13.359375 32.214844 13.320312 32.148438 C 13.277344 32.078125 13.269531 31.996094 13.289062 31.921875 L 14.046875 29.066406 C 14.089844 28.90625 14.253906 28.8125 14.414062 28.851562 L 16.3125 29.355469 C 16.53125 29.414062 16.761719 29.316406 16.867188 29.117188 C 17.296875 28.339844 17.835938 27.632812 18.476562 27.015625 C 18.640625 26.859375 18.671875 26.613281 18.558594 26.417969 L 17.574219 24.722656 C 17.53125 24.65625 17.523438 24.574219 17.542969 24.496094 C 17.5625 24.421875 17.613281 24.355469 17.683594 24.316406 L 20.242188 22.832031 C 20.3125 22.792969 20.390625 22.78125 20.46875 22.800781 C 20.546875 22.820312 20.613281 22.871094 20.652344 22.941406 L 21.636719 24.636719 C 21.753906 24.828125 21.984375 24.921875 22.199219 24.859375 C 23.054688 24.613281 23.9375 24.492188 24.828125 24.507812 C 24.828125 24.507812 24.832031 24.507812 24.835938 24.507812 C 25.058594 24.507812 25.253906 24.359375 25.308594 24.144531 L 25.8125 22.25 C 25.832031 22.171875 25.882812 22.105469 25.953125 22.066406 C 26.019531 22.027344 26.101562 22.015625 26.179688 22.035156 L 29.042969 22.792969 C 29.117188 22.8125 29.183594 22.863281 29.222656 22.933594 C 29.265625 23 29.273438 23.082031 29.253906 23.160156 L 28.75 25.054688 C 28.691406 25.269531 28.792969 25.5 28.988281 25.609375 C 29.769531 26.035156 30.476562 26.574219 31.09375 27.210938 C 31.253906 27.375 31.5 27.40625 31.695312 27.292969 L 33.394531 26.308594 C 33.539062 26.226562 33.722656 26.277344 33.804688 26.417969 L 35.292969 28.972656 C 35.375 29.113281 35.324219 29.296875 35.183594 29.382812 L 33.484375 30.367188 C 33.289062 30.476562 33.195312 30.710938 33.257812 30.925781 C 33.507812 31.777344 33.625 32.660156 33.613281 33.546875 C 33.609375 33.769531 33.757812 33.96875 33.976562 34.027344 L 35.875 34.527344 C 35.953125 34.550781 36.019531 34.597656 36.058594 34.667969 C 36.097656 34.738281 36.109375 34.816406 36.089844 34.894531 L 35.328125 37.75 C 35.289062 37.910156 35.125 38.003906 34.964844 37.960938 L 33.066406 37.460938 C 32.847656 37.402344 32.617188 37.5 32.507812 37.695312 C 32.082031 38.472656 31.539062 39.179688 30.898438 39.796875 C 30.738281 39.953125 30.703125 40.199219 30.816406 40.394531 L 31.804688 42.089844 C 31.886719 42.234375 31.839844 42.417969 31.695312 42.5 L 29.136719 43.984375 C 29.066406 44.023438 28.984375 44.035156 28.90625 44.011719 C 28.832031 43.992188 28.765625 43.941406 28.726562 43.875 L 27.738281 42.179688 C 27.625 41.984375 27.394531 41.890625 27.175781 41.953125 C 26.320312 42.203125 25.4375 42.324219 24.550781 42.308594 C 24.546875 42.308594 24.542969 42.308594 24.542969 42.308594 C 24.320312 42.308594 24.125 42.457031 24.066406 42.671875 L 23.5625 44.566406 C 23.523438 44.726562 23.355469 44.820312 23.199219 44.777344 L 20.335938 44.019531 C 20.257812 44 20.191406 43.953125 20.152344 43.882812 C 20.113281 43.8125 20.101562 43.734375 20.121094 43.65625 L 20.625 41.761719 C 20.683594 41.542969 20.585938 41.316406 20.386719 41.207031 C 19.609375 40.78125 18.898438 40.242188 18.28125 39.601562 C 18.1875 39.503906 18.058594 39.453125 17.929688 39.453125 C 17.84375 39.453125 17.757812 39.476562 17.683594 39.519531 L 15.984375 40.503906 C 15.839844 40.585938 15.65625 40.539062 15.574219 40.394531 Z M 17.851562 40.554688 C 18.375 41.058594 18.957031 41.5 19.578125 41.875 L 19.171875 43.40625 C 18.992188 44.085938 19.398438 44.789062 20.082031 44.96875 L 22.945312 45.726562 C 23.054688 45.753906 23.164062 45.769531 23.273438 45.769531 C 23.839844 45.769531 24.363281 45.390625 24.515625 44.816406 L 24.921875 43.285156 C 25.648438 43.269531 26.371094 43.171875 27.078125 42.996094 L 27.875 44.367188 C 28.046875 44.660156 28.324219 44.871094 28.65625 44.960938 C 28.988281 45.046875 29.332031 45 29.628906 44.828125 L 32.1875 43.347656 C 32.484375 43.175781 32.695312 42.898438 32.785156 42.570312 C 32.871094 42.238281 32.824219 41.894531 32.652344 41.597656 L 31.855469 40.226562 C 32.359375 39.703125 32.800781 39.125 33.175781 38.503906 L 34.710938 38.910156 C 35.394531 39.089844 36.097656 38.683594 36.28125 38 L 37.039062 35.144531 C 37.125 34.816406 37.078125 34.472656 36.90625 34.175781 C 36.734375 33.878906 36.457031 33.667969 36.128906 33.582031 L 34.59375 33.175781 C 34.574219 32.449219 34.480469 31.730469 34.300781 31.023438 L 35.675781 30.226562 C 36.289062 29.875 36.496094 29.089844 36.140625 28.480469 L 34.652344 25.925781 C 34.296875 25.316406 33.511719 25.109375 32.902344 25.464844 L 31.527344 26.257812 C 31 25.757812 30.421875 25.316406 29.796875 24.941406 L 30.203125 23.410156 C 30.292969 23.078125 30.246094 22.734375 30.074219 22.441406 C 29.902344 22.144531 29.625 21.933594 29.292969 21.847656 L 26.429688 21.089844 C 26.101562 21 25.753906 21.046875 25.457031 21.21875 C 25.164062 21.390625 24.953125 21.667969 24.863281 21.996094 L 24.457031 23.527344 C 23.730469 23.546875 23.003906 23.640625 22.300781 23.816406 L 21.5 22.449219 C 21.328125 22.152344 21.050781 21.941406 20.722656 21.855469 C 20.390625 21.765625 20.042969 21.8125 19.75 21.984375 L 17.1875 23.46875 C 16.890625 23.640625 16.679688 23.914062 16.59375 24.246094 C 16.503906 24.578125 16.550781 24.921875 16.722656 25.214844 L 17.519531 26.585938 C 17.019531 27.109375 16.574219 27.691406 16.199219 28.3125 L 14.664062 27.90625 C 14.335938 27.820312 13.988281 27.863281 13.691406 28.035156 C 13.398438 28.207031 13.183594 28.484375 13.097656 28.816406 L 12.339844 31.667969 C 12.25 32 12.296875 32.34375 12.46875 32.640625 C 12.640625 32.933594 12.917969 33.144531 13.25 33.234375 L 14.785156 33.640625 C 14.800781 34.363281 14.898438 35.085938 15.074219 35.789062 L 13.699219 36.585938 C 13.089844 36.941406 12.882812 37.726562 13.238281 38.335938 L 14.722656 40.886719 C 14.894531 41.183594 15.171875 41.394531 15.503906 41.480469 C 15.835938 41.570312 16.179688 41.523438 16.476562 41.351562 L 17.851562 40.554688 " fill-opacity="1" fill-rule="nonzero"/></g><path fill="#38b6ff" d="M 19.40625 32.011719 C 20.054688 29.570312 22.273438 27.957031 24.691406 27.957031 C 25.152344 27.957031 25.621094 28.015625 26.089844 28.140625 C 29 28.910156 30.742188 31.898438 29.96875 34.804688 C 29.597656 36.210938 28.695312 37.386719 27.433594 38.121094 C 26.171875 38.851562 24.699219 39.046875 23.289062 38.675781 C 20.375 37.90625 18.636719 34.914062 19.40625 32.011719 Z M 23.035156 39.621094 C 23.589844 39.769531 24.140625 39.835938 24.6875 39.835938 C 27.539062 39.835938 30.15625 37.933594 30.917969 35.054688 C 31.832031 31.628906 29.777344 28.101562 26.339844 27.191406 C 22.90625 26.285156 19.367188 28.332031 18.457031 31.757812 C 17.546875 35.1875 19.601562 38.714844 23.035156 39.621094 " fill-opacity="1" fill-rule="nonzero"/><path fill="#38b6ff" d="M 51.742188 59.792969 C 46.253906 59.792969 41.789062 55.339844 41.789062 49.867188 C 41.789062 44.390625 46.253906 39.9375 51.742188 39.9375 C 57.230469 39.9375 61.695312 44.390625 61.695312 49.867188 C 61.695312 55.339844 57.230469 59.792969 51.742188 59.792969 Z M 51.742188 38.957031 C 48.820312 38.957031 46.074219 40.09375 44.007812 42.152344 C 41.941406 44.210938 40.804688 46.953125 40.804688 49.867188 C 40.804688 52.78125 41.941406 55.519531 44.007812 57.578125 C 46.074219 59.640625 48.820312 60.773438 51.742188 60.773438 C 54.664062 60.773438 57.410156 59.640625 59.476562 57.578125 C 61.539062 55.519531 62.679688 52.78125 62.679688 49.867188 C 62.679688 46.953125 61.539062 44.210938 59.476562 42.152344 C 57.410156 40.09375 54.664062 38.957031 51.742188 38.957031 " fill-opacity="1" fill-rule="nonzero"/><g clip-path="url(#id2)"><path fill="#38b6ff" d="M 69.902344 46.894531 L 66.902344 47.867188 C 66.683594 47.9375 66.542969 48.152344 66.566406 48.382812 C 66.617188 48.878906 66.640625 49.382812 66.640625 49.878906 C 66.640625 50.375 66.617188 50.878906 66.566406 51.378906 C 66.542969 51.605469 66.683594 51.820312 66.902344 51.890625 L 69.902344 52.863281 C 70.195312 52.957031 70.355469 53.273438 70.257812 53.5625 L 68.886719 57.773438 C 68.84375 57.914062 68.742188 58.027344 68.609375 58.097656 C 68.476562 58.164062 68.324219 58.175781 68.183594 58.132812 L 65.1875 57.160156 C 64.96875 57.089844 64.730469 57.179688 64.613281 57.378906 C 64.109375 58.238281 63.515625 59.054688 62.84375 59.800781 C 62.691406 59.972656 62.679688 60.226562 62.816406 60.414062 L 64.667969 62.960938 C 64.847656 63.207031 64.792969 63.554688 64.546875 63.734375 L 60.953125 66.339844 C 60.835938 66.425781 60.6875 66.460938 60.539062 66.4375 C 60.390625 66.414062 60.261719 66.335938 60.175781 66.214844 L 58.324219 63.671875 C 58.1875 63.488281 57.941406 63.417969 57.726562 63.511719 C 56.8125 63.914062 55.851562 64.226562 54.871094 64.4375 C 54.648438 64.484375 54.484375 64.6875 54.484375 64.917969 L 54.484375 68.058594 C 54.484375 68.367188 54.234375 68.617188 53.929688 68.617188 L 49.488281 68.617188 C 49.183594 68.617188 48.933594 68.367188 48.933594 68.058594 L 48.933594 64.917969 C 48.933594 64.6875 48.769531 64.484375 48.542969 64.4375 C 47.566406 64.226562 46.605469 63.914062 45.6875 63.511719 C 45.625 63.484375 45.558594 63.472656 45.492188 63.472656 C 45.335938 63.472656 45.1875 63.542969 45.09375 63.671875 L 43.242188 66.214844 C 43.15625 66.335938 43.023438 66.414062 42.878906 66.4375 C 42.730469 66.460938 42.582031 66.425781 42.460938 66.339844 L 38.871094 63.734375 C 38.753906 63.648438 38.671875 63.519531 38.648438 63.371094 C 38.625 63.226562 38.660156 63.078125 38.75 62.960938 L 40.601562 60.414062 C 40.738281 60.226562 40.726562 59.972656 40.570312 59.800781 C 39.902344 59.054688 39.308594 58.238281 38.804688 57.378906 C 38.6875 57.179688 38.449219 57.089844 38.230469 57.160156 L 35.230469 58.132812 C 35.089844 58.175781 34.941406 58.164062 34.808594 58.097656 C 34.671875 58.027344 34.574219 57.914062 34.53125 57.773438 L 33.15625 53.5625 C 33.113281 53.425781 33.125 53.273438 33.191406 53.140625 C 33.261719 53.007812 33.375 52.910156 33.515625 52.863281 L 36.511719 51.890625 C 36.734375 51.820312 36.875 51.605469 36.851562 51.378906 C 36.800781 50.882812 36.777344 50.378906 36.777344 49.878906 C 36.777344 49.382812 36.800781 48.878906 36.851562 48.382812 C 36.875 48.152344 36.734375 47.9375 36.511719 47.867188 L 33.515625 46.894531 C 33.375 46.851562 33.261719 46.75 33.191406 46.617188 C 33.125 46.484375 33.113281 46.335938 33.15625 46.195312 L 34.53125 41.984375 C 34.625 41.691406 34.9375 41.53125 35.230469 41.628906 L 38.230469 42.597656 C 38.449219 42.671875 38.6875 42.578125 38.804688 42.378906 C 39.308594 41.519531 39.902344 40.703125 40.570312 39.960938 C 40.726562 39.789062 40.738281 39.53125 40.601562 39.34375 L 38.75 36.800781 C 38.566406 36.550781 38.625 36.203125 38.871094 36.023438 L 42.460938 33.421875 C 42.710938 33.242188 43.0625 33.296875 43.242188 33.542969 L 45.09375 36.085938 C 45.230469 36.273438 45.476562 36.339844 45.6875 36.246094 C 46.605469 35.84375 47.566406 35.53125 48.542969 35.320312 C 48.769531 35.273438 48.933594 35.074219 48.933594 34.84375 L 48.933594 31.699219 C 48.933594 31.394531 49.183594 31.144531 49.488281 31.144531 L 53.929688 31.144531 C 54.234375 31.144531 54.484375 31.394531 54.484375 31.699219 L 54.484375 34.84375 C 54.484375 35.074219 54.648438 35.273438 54.871094 35.320312 C 55.851562 35.53125 56.8125 35.84375 57.726562 36.246094 C 57.941406 36.339844 58.1875 36.273438 58.324219 36.085938 L 60.175781 33.542969 C 60.261719 33.425781 60.390625 33.347656 60.539062 33.324219 C 60.6875 33.300781 60.835938 33.335938 60.953125 33.421875 L 64.546875 36.023438 C 64.792969 36.203125 64.847656 36.550781 64.667969 36.800781 L 62.816406 39.34375 C 62.679688 39.53125 62.691406 39.789062 62.84375 39.960938 C 63.515625 40.703125 64.109375 41.519531 64.613281 42.378906 C 64.730469 42.578125 64.96875 42.671875 65.1875 42.597656 L 68.183594 41.628906 C 68.324219 41.582031 68.476562 41.59375 68.609375 41.664062 C 68.742188 41.730469 68.84375 41.84375 68.886719 41.984375 L 70.257812 46.195312 C 70.355469 46.488281 70.195312 46.800781 69.902344 46.894531 Z M 71.195312 45.894531 L 69.820312 41.683594 C 69.695312 41.292969 69.421875 40.976562 69.054688 40.789062 C 68.6875 40.601562 68.273438 40.570312 67.882812 40.695312 L 65.257812 41.546875 C 64.835938 40.867188 64.359375 40.214844 63.839844 39.605469 L 65.464844 37.375 C 65.960938 36.691406 65.808594 35.726562 65.121094 35.230469 L 61.53125 32.628906 C 61.199219 32.386719 60.792969 32.289062 60.386719 32.355469 C 59.980469 32.417969 59.621094 32.636719 59.382812 32.96875 L 57.757812 35.195312 C 57.015625 34.890625 56.25 34.640625 55.46875 34.453125 L 55.46875 31.699219 C 55.46875 30.851562 54.777344 30.164062 53.929688 30.164062 L 49.488281 30.164062 C 48.640625 30.164062 47.949219 30.851562 47.949219 31.699219 L 47.949219 34.453125 C 47.167969 34.640625 46.402344 34.890625 45.65625 35.195312 L 44.035156 32.96875 C 43.535156 32.28125 42.570312 32.128906 41.886719 32.628906 L 38.292969 35.230469 C 37.605469 35.726562 37.453125 36.691406 37.953125 37.375 L 39.578125 39.605469 C 39.058594 40.214844 38.582031 40.867188 38.160156 41.546875 L 35.535156 40.695312 C 34.726562 40.433594 33.855469 40.875 33.59375 41.683594 L 32.222656 45.894531 C 32.097656 46.28125 32.128906 46.699219 32.316406 47.0625 C 32.503906 47.429688 32.820312 47.703125 33.210938 47.828125 L 35.839844 48.679688 C 35.808594 49.078125 35.792969 49.480469 35.792969 49.878906 C 35.792969 50.277344 35.808594 50.679688 35.839844 51.082031 L 33.210938 51.929688 C 32.820312 52.058594 32.503906 52.328125 32.316406 52.695312 C 32.128906 53.0625 32.097656 53.476562 32.222656 53.867188 L 33.59375 58.078125 C 33.722656 58.464844 33.992188 58.785156 34.359375 58.96875 C 34.726562 59.15625 35.144531 59.191406 35.535156 59.0625 L 38.160156 58.210938 C 38.582031 58.894531 39.058594 59.542969 39.578125 60.152344 L 37.953125 62.382812 C 37.710938 62.714844 37.617188 63.121094 37.679688 63.527344 C 37.746094 63.933594 37.960938 64.289062 38.292969 64.527344 L 41.886719 67.132812 C 42.21875 67.371094 42.625 67.46875 43.03125 67.40625 C 43.4375 67.339844 43.796875 67.121094 44.035156 66.792969 L 45.65625 64.566406 C 46.402344 64.871094 47.167969 65.117188 47.949219 65.308594 L 47.949219 68.058594 C 47.949219 68.90625 48.640625 69.59375 49.488281 69.59375 L 53.929688 69.59375 C 54.777344 69.59375 55.46875 68.90625 55.46875 68.058594 L 55.46875 65.308594 C 56.25 65.117188 57.015625 64.871094 57.757812 64.566406 L 59.378906 66.792969 C 59.621094 67.121094 59.980469 67.339844 60.386719 67.40625 C 60.792969 67.46875 61.199219 67.371094 61.53125 67.132812 L 65.121094 64.527344 C 65.808594 64.03125 65.960938 63.070312 65.464844 62.382812 L 63.839844 60.152344 C 64.359375 59.542969 64.835938 58.894531 65.257812 58.210938 L 67.882812 59.0625 C 68.273438 59.191406 68.6875 59.15625 69.054688 58.96875 C 69.421875 58.785156 69.695312 58.464844 69.820312 58.078125 L 71.195312 53.867188 C 71.457031 53.0625 71.011719 52.191406 70.203125 51.929688 L 67.578125 51.082031 C 67.609375 50.679688 67.625 50.277344 67.625 49.878906 C 67.625 49.480469 67.609375 49.078125 67.578125 48.679688 L 70.203125 47.828125 C 71.011719 47.566406 71.457031 46.699219 71.195312 45.894531 " fill-opacity="1" fill-rule="nonzero"/></g><path fill="#38b6ff" d="M 24.667969 32.945312 C 24.90625 32.945312 25.101562 33.140625 25.101562 33.378906 C 25.101562 33.617188 24.90625 33.8125 24.667969 33.8125 C 24.429688 33.8125 24.234375 33.617188 24.234375 33.378906 C 24.234375 33.140625 24.429688 32.945312 24.667969 32.945312 Z M 24.667969 34.792969 C 25.449219 34.792969 26.085938 34.160156 26.085938 33.378906 C 26.085938 32.601562 25.449219 31.964844 24.667969 31.964844 C 23.886719 31.964844 23.25 32.601562 23.25 33.378906 C 23.25 34.160156 23.886719 34.792969 24.667969 34.792969 " fill-opacity="1" fill-rule="nonzero"/><path fill="#38b6ff" d="M 27.988281 32.945312 C 28.226562 32.945312 28.421875 33.140625 28.421875 33.378906 C 28.421875 33.617188 28.226562 33.8125 27.988281 33.8125 C 27.746094 33.8125 27.550781 33.617188 27.550781 33.378906 C 27.550781 33.140625 27.746094 32.945312 27.988281 32.945312 Z M 27.988281 34.792969 C 28.769531 34.792969 29.40625 34.160156 29.40625 33.378906 C 29.40625 32.601562 28.769531 31.964844 27.988281 31.964844 C 27.207031 31.964844 26.570312 32.601562 26.570312 33.378906 C 26.570312 34.160156 27.207031 34.792969 27.988281 34.792969 " fill-opacity="1" fill-rule="nonzero"/><path fill="#38b6ff" d="M 20.914062 33.378906 C 20.914062 33.140625 21.109375 32.945312 21.347656 32.945312 C 21.589844 32.945312 21.785156 33.140625 21.785156 33.378906 C 21.785156 33.617188 21.589844 33.8125 21.347656 33.8125 C 21.109375 33.8125 20.914062 33.617188 20.914062 33.378906 Z M 22.765625 33.378906 C 22.765625 32.601562 22.132812 31.964844 21.347656 31.964844 C 20.566406 31.964844 19.929688 32.601562 19.929688 33.378906 C 19.929688 34.160156 20.566406 34.792969 21.347656 34.792969 C 22.132812 34.792969 22.765625 34.160156 22.765625 33.378906 " fill-opacity="1" fill-rule="nonzero"/><path fill="#38b6ff" d="M 45.300781 49.90625 L 47.859375 47.355469 C 48.050781 47.164062 48.050781 46.851562 47.859375 46.660156 C 47.667969 46.46875 47.359375 46.46875 47.164062 46.660156 L 44.257812 49.558594 C 44.167969 49.652344 44.117188 49.777344 44.117188 49.90625 C 44.117188 50.035156 44.167969 50.160156 44.257812 50.253906 L 47.199219 53.183594 C 47.292969 53.28125 47.421875 53.328125 47.546875 53.328125 C 47.671875 53.328125 47.796875 53.28125 47.894531 53.183594 C 48.085938 52.992188 48.085938 52.683594 47.894531 52.492188 L 45.300781 49.90625 " fill-opacity="1" fill-rule="nonzero"/><path fill="#38b6ff" d="M 55.589844 46.660156 C 55.398438 46.851562 55.398438 47.164062 55.589844 47.355469 L 58.152344 49.90625 L 55.558594 52.492188 C 55.367188 52.683594 55.367188 52.992188 55.558594 53.183594 C 55.65625 53.28125 55.78125 53.328125 55.90625 53.328125 C 56.03125 53.328125 56.15625 53.28125 56.253906 53.183594 L 59.191406 50.253906 C 59.285156 50.160156 59.335938 50.035156 59.335938 49.90625 C 59.335938 49.777344 59.285156 49.652344 59.191406 49.558594 L 56.285156 46.660156 C 56.09375 46.46875 55.785156 46.46875 55.589844 46.660156 " fill-opacity="1" fill-rule="nonzero"/><path fill="#38b6ff" d="M 53.046875 46.550781 C 52.796875 46.453125 52.511719 46.578125 52.410156 46.828125 L 50.125 52.660156 C 50.027344 52.910156 50.152344 53.195312 50.402344 53.292969 C 50.460938 53.316406 50.523438 53.328125 50.582031 53.328125 C 50.78125 53.328125 50.964844 53.210938 51.039062 53.015625 L 53.328125 47.1875 C 53.425781 46.933594 53.300781 46.648438 53.046875 46.550781 " fill-opacity="1" fill-rule="nonzero"/><g fill="#38b6ff" fill-opacity="1"><g transform="translate(83.583954, 53.655999)"><g><path d="M 9.03125 -15.609375 C 6.695312 -15.609375 5.53125 -13.351562 5.53125 -8.84375 L 5.53125 -7.0625 C 5.53125 -4.925781 5.835938 -3.25 6.453125 -2.03125 C 7.078125 -0.820312 7.988281 -0.21875 9.1875 -0.21875 C 10.84375 -0.21875 12.363281 -1.832031 13.75 -5.0625 L 14.15625 -5.0625 L 14 -0.015625 L 13.75 -0.015625 C 13.65625 -0.179688 13.570312 -0.296875 13.5 -0.359375 C 13.425781 -0.429688 13.316406 -0.46875 13.171875 -0.46875 C 13.023438 -0.46875 12.476562 -0.351562 11.53125 -0.125 C 10.582031 0.101562 9.617188 0.21875 8.640625 0.21875 C 6.191406 0.21875 4.289062 -0.441406 2.9375 -1.765625 C 1.59375 -3.085938 0.921875 -5.078125 0.921875 -7.734375 C 0.921875 -10.390625 1.625 -12.4375 3.03125 -13.875 C 4.4375 -15.320312 6.332031 -16.046875 8.71875 -16.046875 C 9.632812 -16.046875 10.53125 -15.929688 11.40625 -15.703125 C 12.289062 -15.472656 12.804688 -15.359375 12.953125 -15.359375 C 13.109375 -15.359375 13.222656 -15.390625 13.296875 -15.453125 C 13.367188 -15.523438 13.453125 -15.644531 13.546875 -15.8125 L 13.796875 -15.8125 L 13.96875 -10.90625 L 13.5625 -10.90625 C 12.882812 -12.425781 12.1875 -13.585938 11.46875 -14.390625 C 10.757812 -15.203125 9.945312 -15.609375 9.03125 -15.609375 Z M 9.03125 -15.609375 "/></g></g></g><g fill="#38b6ff" fill-opacity="1"><g transform="translate(99.153845, 53.655999)"><g><path d="M 11.3125 -6.984375 L 11.3125 -8.640625 C 11.3125 -11.398438 11.175781 -13.140625 10.90625 -13.859375 C 10.601562 -14.691406 10.175781 -15.203125 9.625 -15.390625 C 9.300781 -15.515625 8.914062 -15.578125 8.46875 -15.578125 C 8.019531 -15.578125 7.628906 -15.515625 7.296875 -15.390625 C 6.972656 -15.273438 6.707031 -15.066406 6.5 -14.765625 C 6.289062 -14.460938 6.117188 -14.144531 5.984375 -13.8125 C 5.859375 -13.488281 5.757812 -13.023438 5.6875 -12.421875 C 5.59375 -11.546875 5.546875 -10.257812 5.546875 -8.5625 L 5.546875 -6.9375 C 5.546875 -5.09375 5.617188 -3.78125 5.765625 -3 C 5.910156 -2.226562 6.085938 -1.679688 6.296875 -1.359375 C 6.765625 -0.617188 7.488281 -0.25 8.46875 -0.25 C 9.65625 -0.25 10.425781 -0.75 10.78125 -1.75 C 11.132812 -2.75 11.3125 -4.492188 11.3125 -6.984375 Z M 8.421875 0.21875 C 5.910156 0.21875 4.03125 -0.457031 2.78125 -1.8125 C 1.539062 -3.175781 0.921875 -5.148438 0.921875 -7.734375 C 0.921875 -10.316406 1.585938 -12.347656 2.921875 -13.828125 C 4.253906 -15.304688 6.140625 -16.046875 8.578125 -16.046875 C 11.015625 -16.046875 12.851562 -15.34375 14.09375 -13.9375 C 15.34375 -12.53125 15.96875 -10.53125 15.96875 -7.9375 C 15.96875 -5.351562 15.335938 -3.347656 14.078125 -1.921875 C 12.816406 -0.492188 10.929688 0.21875 8.421875 0.21875 Z M 8.421875 0.21875 "/></g></g></g><g fill="#38b6ff" fill-opacity="1"><g transform="translate(116.032506, 53.655999)"><g><path d="M 16.125 -8.171875 C 16.125 -5.066406 15.25 -2.90625 13.5 -1.6875 C 11.882812 -0.5625 9.671875 0 6.859375 0 L 0.46875 0 L 0.46875 -0.421875 L 1.96875 -0.421875 L 1.96875 -15.375 L 0.46875 -15.375 L 0.46875 -15.8125 L 7.453125 -15.8125 C 10.335938 -15.8125 12.503906 -15.21875 13.953125 -14.03125 C 15.398438 -12.851562 16.125 -10.898438 16.125 -8.171875 Z M 6.359375 -0.421875 L 7.21875 -0.421875 C 8.738281 -0.421875 9.828125 -0.957031 10.484375 -2.03125 C 11.140625 -3.113281 11.46875 -4.921875 11.46875 -7.453125 L 11.46875 -8.765625 C 11.46875 -12.148438 10.820312 -14.1875 9.53125 -14.875 C 8.914062 -15.207031 8.039062 -15.375 6.90625 -15.375 L 6.359375 -15.375 Z M 6.359375 -0.421875 "/></g></g></g><g fill="#38b6ff" fill-opacity="1"><g transform="translate(133.069122, 53.655999)"><g><path d="M 0.46875 -15.8125 L 12.21875 -15.8125 L 12.4375 -11.328125 L 12.03125 -11.328125 C 11.394531 -12.847656 10.734375 -13.890625 10.046875 -14.453125 C 9.359375 -15.023438 8.34375 -15.3125 7 -15.3125 L 6.203125 -15.3125 L 6.203125 -8.328125 L 6.984375 -8.328125 C 7.679688 -8.328125 8.269531 -8.59375 8.75 -9.125 C 9.238281 -9.664062 9.582031 -10.390625 9.78125 -11.296875 L 10.109375 -11.296875 L 10.109375 -4.609375 L 9.734375 -4.609375 C 9.460938 -5.734375 9.097656 -6.535156 8.640625 -7.015625 C 8.179688 -7.503906 7.550781 -7.75 6.75 -7.75 L 6.203125 -7.75 L 6.203125 -0.5 L 7.0625 -0.5 C 8.445312 -0.5 9.625 -0.910156 10.59375 -1.734375 C 11.570312 -2.566406 12.238281 -3.628906 12.59375 -4.921875 L 13.046875 -4.921875 L 12.875 0 L 0.46875 0 L 0.46875 -0.5 L 1.8125 -0.5 L 1.8125 -15.3125 L 0.46875 -15.3125 Z M 0.46875 -15.8125 "/></g></g></g><g fill="#43d3e8" fill-opacity="1"><g transform="translate(147.13883, 53.655999)"><g/></g></g><g fill="#ffffff" fill-opacity="1"><g transform="translate(151.191532, 53.655999)"><g><path d="M 7.34375 -0.25 C 8.09375 -0.25 8.753906 -0.453125 9.328125 -0.859375 C 9.910156 -1.265625 10.203125 -1.875 10.203125 -2.6875 C 10.203125 -3.507812 9.890625 -4.140625 9.265625 -4.578125 C 8.640625 -5.015625 7.75 -5.394531 6.59375 -5.71875 C 5.445312 -6.039062 4.613281 -6.320312 4.09375 -6.5625 C 3.570312 -6.8125 3.082031 -7.128906 2.625 -7.515625 C 1.6875 -8.296875 1.21875 -9.507812 1.21875 -11.15625 C 1.21875 -12.488281 1.695312 -13.632812 2.65625 -14.59375 C 3.613281 -15.5625 4.914062 -16.046875 6.5625 -16.046875 C 7.363281 -16.046875 8.195312 -15.929688 9.0625 -15.703125 C 9.925781 -15.472656 10.460938 -15.359375 10.671875 -15.359375 C 10.890625 -15.359375 11.082031 -15.507812 11.25 -15.8125 L 11.5 -15.8125 L 11.65625 -11.25 L 11.296875 -11.25 C 10.566406 -12.550781 9.804688 -13.597656 9.015625 -14.390625 C 8.222656 -15.179688 7.363281 -15.578125 6.4375 -15.578125 C 5.519531 -15.578125 4.800781 -15.363281 4.28125 -14.9375 C 3.769531 -14.507812 3.515625 -13.9375 3.515625 -13.21875 C 3.515625 -12.5 3.816406 -11.945312 4.421875 -11.5625 C 5.035156 -11.1875 5.785156 -10.875 6.671875 -10.625 C 7.566406 -10.382812 8.148438 -10.21875 8.421875 -10.125 C 8.703125 -10.039062 9.050781 -9.921875 9.46875 -9.765625 C 9.882812 -9.609375 10.222656 -9.441406 10.484375 -9.265625 C 10.742188 -9.097656 11.019531 -8.878906 11.3125 -8.609375 C 11.613281 -8.347656 11.847656 -8.0625 12.015625 -7.75 C 12.421875 -7.019531 12.625 -6.160156 12.625 -5.171875 C 12.625 -3.546875 12.113281 -2.238281 11.09375 -1.25 C 10.082031 -0.269531 8.75 0.21875 7.09375 0.21875 C 6.226562 0.21875 5.242188 0.109375 4.140625 -0.109375 C 3.035156 -0.335938 2.421875 -0.453125 2.296875 -0.453125 C 2.085938 -0.453125 1.882812 -0.226562 1.6875 0.21875 L 1.375 0.21875 L 1.15625 -5.140625 L 1.53125 -5.140625 C 2.195312 -3.835938 3.046875 -2.695312 4.078125 -1.71875 C 5.109375 -0.738281 6.195312 -0.25 7.34375 -0.25 Z M 7.34375 -0.25 "/></g></g></g><g fill="#ffffff" fill-opacity="1"><g transform="translate(164.730565, 53.655999)"><g><path d="M 0.46875 -15.8125 L 7.515625 -15.8125 L 7.515625 -15.375 L 6.203125 -15.375 L 6.203125 -8.375 L 10.703125 -8.375 L 10.703125 -15.375 L 9.375 -15.375 L 9.375 -15.8125 L 16.4375 -15.8125 L 16.4375 -15.375 L 15.109375 -15.375 L 15.109375 -0.421875 L 16.4375 -0.421875 L 16.4375 0 L 9.375 0 L 9.375 -0.421875 L 10.703125 -0.421875 L 10.703125 -7.796875 L 6.203125 -7.796875 L 6.203125 -0.421875 L 7.515625 -0.421875 L 7.515625 0 L 0.46875 0 L 0.46875 -0.421875 L 1.8125 -0.421875 L 1.8125 -15.375 L 0.46875 -15.375 Z M 0.46875 -15.8125 "/></g></g></g><g fill="#ffffff" fill-opacity="1"><g transform="translate(181.631787, 53.655999)"><g><path d="M 9.75 -0.421875 L 8.109375 -5.3125 L 3.640625 -5.3125 L 1.890625 -0.421875 L 3.59375 -0.421875 L 3.59375 0 L 0.140625 0 L 0.140625 -0.421875 L 1.203125 -0.421875 L 6.953125 -15.9375 L 8.8125 -15.9375 L 14.5 -0.421875 L 15.53125 -0.421875 L 15.53125 0 L 8.15625 0 L 8.15625 -0.421875 Z M 5.953125 -11.71875 L 3.84375 -5.796875 L 7.921875 -5.796875 Z M 5.953125 -11.71875 "/></g></g></g><g fill="#ffffff" fill-opacity="1"><g transform="translate(197.291936, 53.655999)"><g><path d="M 7.40625 -8 L 6.203125 -8 L 6.203125 -0.421875 L 7.671875 -0.421875 L 7.671875 0 L 0.34375 0 L 0.34375 -0.421875 L 1.8125 -0.421875 L 1.8125 -15.375 L 0.34375 -15.375 L 0.34375 -15.8125 L 7.15625 -15.8125 C 9.113281 -15.8125 10.5 -15.707031 11.3125 -15.5 C 12.132812 -15.289062 12.710938 -15.046875 13.046875 -14.765625 C 13.773438 -14.179688 14.140625 -13.25 14.140625 -11.96875 C 14.140625 -10.6875 13.820312 -9.769531 13.1875 -9.21875 C 12.550781 -8.675781 11.585938 -8.347656 10.296875 -8.234375 L 10.296875 -8.171875 C 11.515625 -8.003906 12.363281 -7.640625 12.84375 -7.078125 C 13.320312 -6.523438 13.5625 -5.597656 13.5625 -4.296875 L 13.5625 -3.09375 C 13.5625 -2.3125 13.601562 -1.785156 13.6875 -1.515625 C 13.769531 -1.242188 13.945312 -1.109375 14.21875 -1.109375 C 14.488281 -1.109375 14.703125 -1.226562 14.859375 -1.46875 C 15.023438 -1.71875 15.175781 -2.242188 15.3125 -3.046875 L 15.6875 -3 C 15.519531 -1.71875 15.226562 -0.859375 14.8125 -0.421875 C 14.40625 0.00390625 13.582031 0.21875 12.34375 0.21875 C 11.113281 0.21875 10.238281 -0.0664062 9.71875 -0.640625 C 9.195312 -1.222656 8.9375 -2.3125 8.9375 -3.90625 L 8.9375 -5.546875 C 8.9375 -6.390625 8.828125 -7.007812 8.609375 -7.40625 C 8.390625 -7.800781 7.988281 -8 7.40625 -8 Z M 6.203125 -15.375 L 6.203125 -8.421875 L 6.9375 -8.421875 C 7.789062 -8.421875 8.421875 -8.679688 8.828125 -9.203125 C 9.242188 -9.734375 9.453125 -10.59375 9.453125 -11.78125 L 9.453125 -12.4375 C 9.453125 -13.625 9.253906 -14.410156 8.859375 -14.796875 C 8.460938 -15.179688 7.828125 -15.375 6.953125 -15.375 Z M 6.203125 -15.375 "/></g></g></g><g fill="#ffffff" fill-opacity="1"><g transform="translate(213.448522, 53.655999)"><g><path d="M 0.46875 -15.8125 L 12.21875 -15.8125 L 12.4375 -11.328125 L 12.03125 -11.328125 C 11.394531 -12.847656 10.734375 -13.890625 10.046875 -14.453125 C 9.359375 -15.023438 8.34375 -15.3125 7 -15.3125 L 6.203125 -15.3125 L 6.203125 -8.328125 L 6.984375 -8.328125 C 7.679688 -8.328125 8.269531 -8.59375 8.75 -9.125 C 9.238281 -9.664062 9.582031 -10.390625 9.78125 -11.296875 L 10.109375 -11.296875 L 10.109375 -4.609375 L 9.734375 -4.609375 C 9.460938 -5.734375 9.097656 -6.535156 8.640625 -7.015625 C 8.179688 -7.503906 7.550781 -7.75 6.75 -7.75 L 6.203125 -7.75 L 6.203125 -0.5 L 7.0625 -0.5 C 8.445312 -0.5 9.625 -0.910156 10.59375 -1.734375 C 11.570312 -2.566406 12.238281 -3.628906 12.59375 -4.921875 L 13.046875 -4.921875 L 12.875 0 L 0.46875 0 L 0.46875 -0.5 L 1.8125 -0.5 L 1.8125 -15.3125 L 0.46875 -15.3125 Z M 0.46875 -15.8125 "/></g></g></g></svg>